# xmcd
#
# Track frame offsets:
#	150
#	8666
#	13728
#	24650
#	35901
#	44680
#	54963
#	63689
#	73653
#	82620
#	94702
#	104349
#	115218
#	123797
#	134065
#	146251
#	156389
#	167166
#	181562
#	203508
#	211297
#
# Disc length: 3009 seconds
#
# Revision: 1
# Processed by: cddbd v1.5.2PL0 Copyright (c) Steve Scherf et al.
# Submitted via: EasyCDDAExtractor 11.0.0.1
#
DISCID=1e0bbf15
DTITLE=Various Artist - LAST CHRISTMAS - BEST OF SWINGING CHRISTMAS
DYEAR=2005
DGENRE=Swing
TTITLE0=Dean Martin - Winter Wonderland
TTITLE1=Nat King Cole - Deck The Hall
TTITLE2=Bing Crosby - Christmas Dinner Country Style
TTITLE3=Al Caiola And Riz Ortolani - Holiday On Skis
TTITLE4=Ray Anthony And His Bookends - Christmas Kisses
TTITLE5=Peggy Lee - Santa Claus Is Coming To Town
TTITLE6=Dean Martin - Let It Snow! Let It Snow! Let It Snow!
TTITLE7=Bing Crosby - Frosty The Snowman
TTITLE8=The Beach Boys - Little Saint Nick
TTITLE9=Kay Starr - (Everybody's Waitin' For) The Man With The Bag
TTITLE10=Les Baxter - Santa Claus' Party
TTITLE11=Jo Stafford - Jingle Bells
TTITLE12=Peggy Lee - Happy Holiday
TTITLE13=Bing Crosby - Great Day
TTITLE14=Lena Horne - Santa Claus Is Comin' To Town
TTITLE15=Dean Martin - Rudolph, The Red-Nosed Reindeer
TTITLE16=Nancy Wilson - What Are You Doing New Year's Eve?
TTITLE17=Al Martino - We Wish You A Merry Christmas - Silver Bells (Medley)
TTITLE18=Fred Waring and The Pennsylvanias - Ring Those Christmas Bells
TTITLE19=Ella Fitzgerald - Angels We Have Heard On High
TTITLE20=Nat King Cole - The Christmas Song (Merry Christmas To You)
EXTD=
EXTT0=
EXTT1=
EXTT2=
EXTT3=
EXTT4=
EXTT5=
EXTT6=
EXTT7=
EXTT8=
EXTT9=
EXTT10=
EXTT11=
EXTT12=
EXTT13=
EXTT14=
EXTT15=
EXTT16=
EXTT17=
EXTT18=
EXTT19=
EXTT20=
PLAYORDER=
